<svg width="20" height="20" viewBox="0 0 20 20" fill="none" xmlns="http://www.w3.org/2000/svg">
<path d="M18.475 12.1875C18.3903 11.8305 18.1874 11.5127 17.8991 11.2858C17.6109 11.0588 17.2544 10.9361 16.8875 10.9375H3.0375C2.67064 10.9361 2.31409 11.0588 2.02585 11.2858C1.73761 11.5127 1.53466 11.8305 1.45 12.1875L0 19.1625H20L18.475 12.1875ZM1.525 17.9125L2.675 12.4375C2.69153 12.3554 2.73749 12.2821 2.80424 12.2314C2.87099 12.1808 2.95394 12.1563 3.0375 12.1625H16.875C16.9586 12.1563 17.0415 12.1808 17.1083 12.2314C17.175 12.2821 17.221 12.3554 17.2375 12.4375L18.4 17.9125H1.525ZM6.525 6.5C6.40731 6.38231 6.34119 6.22269 6.34119 6.05625C6.34119 5.88981 6.40731 5.73019 6.525 5.6125C6.64269 5.49481 6.80231 5.42869 6.96875 5.42869C7.13519 5.42869 7.29481 5.49481 7.4125 5.6125C7.74448 5.94453 8.13861 6.20792 8.57239 6.38762C9.00617 6.56732 9.4711 6.65981 9.94063 6.65981C10.4102 6.65981 10.8751 6.56732 11.3089 6.38762C11.7426 6.20792 12.1368 5.94453 12.4688 5.6125C12.589 5.5109 12.7432 5.45844 12.9005 5.4656C13.0578 5.47277 13.2066 5.53904 13.3171 5.65116C13.4277 5.76328 13.4918 5.91299 13.4968 6.07036C13.5017 6.22774 13.447 6.38117 13.3438 6.5C12.8961 6.949 12.3642 7.30525 11.7787 7.54832C11.1931 7.79139 10.5653 7.91652 9.93125 7.91652C9.29722 7.91652 8.66943 7.79139 8.08384 7.54832C7.49826 7.30525 6.9664 6.949 6.51875 6.5H6.525ZM9.1 4.2625H7.675V2.55H9.1V4.2625ZM11.9875 4.2625H10.5625V2.55H11.9875V4.2625ZM3.0125 6.1H3.4375V8.2375C3.4375 8.73478 3.63504 9.21169 3.98667 9.56333C4.33831 9.91496 4.81522 10.1125 5.3125 10.1125H14.6875C15.1848 10.1125 15.6617 9.91496 16.0133 9.56333C16.365 9.21169 16.5625 8.73478 16.5625 8.2375V6.1H16.95C17.1282 6.09071 17.2963 6.01493 17.4213 5.88764C17.5463 5.76034 17.619 5.59079 17.625 5.4125V3.65C17.6283 3.55642 17.6132 3.4631 17.5805 3.37537C17.5477 3.28764 17.498 3.20724 17.4341 3.13874C17.3703 3.07025 17.2935 3.01501 17.2083 2.97619C17.1231 2.93737 17.0311 2.91573 16.9375 2.9125H16.525V1.875C16.525 1.37772 16.3275 0.900805 15.9758 0.549175C15.6242 0.197544 15.1473 0 14.65 0H5.275C4.77772 0 4.30081 0.197544 3.94917 0.549175C3.59754 0.900805 3.4 1.37772 3.4 1.875V2.9125H3.0125C2.82404 2.91413 2.64376 2.98972 2.51049 3.12299C2.37722 3.25626 2.30163 3.43654 2.3 3.625V5.4125C2.30163 5.60096 2.37722 5.78124 2.51049 5.91451C2.64376 6.04778 2.82404 6.12337 3.0125 6.125V6.1ZM4.625 1.875C4.625 1.69598 4.69612 1.52429 4.8227 1.3977C4.94929 1.27112 5.12098 1.2 5.3 1.2H14.675C14.7636 1.2 14.8514 1.21746 14.9333 1.25138C15.0152 1.2853 15.0896 1.33502 15.1523 1.3977C15.215 1.46038 15.2647 1.53479 15.2986 1.61669C15.3325 1.69858 15.35 1.78636 15.35 1.875V8.2375C15.35 8.41652 15.2789 8.58821 15.1523 8.7148C15.0257 8.84138 14.854 8.9125 14.675 8.9125H5.3C5.21136 8.9125 5.12358 8.89504 5.04169 8.86112C4.95979 8.8272 4.88538 8.77748 4.8227 8.7148C4.76002 8.65212 4.7103 8.57771 4.67638 8.49581C4.64246 8.41392 4.625 8.32614 4.625 8.2375V1.875ZM8.2 13.125V14.375H6.95V13.125H8.2ZM10.7 14.375H9.45V13.125H10.7V14.375ZM11.95 13.125H13.2V14.375H11.95V13.125ZM9.45 14.375V15.625H8.2V14.375H9.45ZM10.7 14.375H11.95V15.625H10.7V14.375ZM6.95 15.625H8.2V16.875H6.95V15.625ZM9.45 15.625H10.7V16.875H9.45V15.625ZM11.95 16.875V15.625H13.2V16.875H11.95Z" fill="white"/>
</svg>
