<svg id="dds__icon--globe-simple" viewbox="0 0 32 32" xmlns="http://www.w3.org/2000/svg"><title>dds__icon--globe-simple</title><path d="M16 0c-8.837 0-16 7.163-16 16s7.163 16 16 16c8.837 0 16-7.163 16-16v0c0-8.837-7.163-16-16-16v0zM2.18 17.060h5.24c0.034 1.839 0.243 3.609 0.613 5.32l-0.033-0.18h-4.38c-0.767-1.495-1.281-3.241-1.437-5.089l-0.003-0.051zM17.060 7.68v-5.22c1.973 1.115 3.421 2.962 3.987 5.163l0.013 0.057zM21.76 9.8c0.374 1.515 0.625 3.278 0.698 5.087l0.002 0.053h-5.4v-5.14zM14.94 2.46v5.22h-4c0.579-2.258 2.027-4.105 3.959-5.199l0.041-0.021zM14.94 9.8v5.14h-5.4c0.075-1.862 0.326-3.625 0.738-5.325l-0.038 0.185zM7.42 14.94h-5.24c0.155-1.899 0.67-3.646 1.476-5.218l-0.036 0.078h4.38c-0.335 1.53-0.545 3.3-0.58 5.113l-0 0.027zM9.54 17.060h5.4v5.14h-4.7c-0.374-1.515-0.625-3.278-0.698-5.087l-0.002-0.053zM14.94 24.32v5.22c-1.973-1.115-3.421-2.962-3.987-5.163l-0.013-0.057zM17.060 29.54v-5.22h4c-0.579 2.258-2.027 4.105-3.959 5.199l-0.041 0.021zM17.060 22.2v-5.14h5.4c-0.075 1.862-0.326 3.625-0.738 5.325l0.038-0.185zM24.58 17.060h5.24c-0.144 1.899-0.66 3.647-1.475 5.215l0.035-0.075h-4.38c0.335-1.53 0.545-3.3 0.58-5.113l0-0.027zM24.58 14.94c-0.034-1.839-0.243-3.609-0.613-5.32l0.033 0.18h4.42c0.767 1.495 1.281 3.241 1.437 5.089l0.003 0.051zM27.060 7.68h-3.7c-0.543-1.741-1.32-3.255-2.31-4.603l0.030 0.043c2.434 0.974 4.457 2.54 5.955 4.525l0.025 0.035zM10.92 3.12c-0.96 1.305-1.737 2.819-2.25 4.451l-0.030 0.109h-3.7c1.523-2.020 3.546-3.586 5.887-4.527l0.093-0.033zM4.92 24.32h3.72c0.543 1.741 1.32 3.255 2.31 4.603l-0.030-0.043c-2.434-0.974-4.457-2.54-5.955-4.525l-0.025-0.035zM21.060 28.88c0.96-1.305 1.737-2.819 2.25-4.451l0.030-0.109h3.7c-1.514 2.022-3.531 3.589-5.868 4.527l-0.092 0.033z"/></svg>