<svg id="dds__icon--currency-coins-generic" viewbox="0 0 32 32" xmlns="http://www.w3.org/2000/svg"><title>dds__icon--currency-coins-generic</title><path d="M18.16 0c-3.115 0.018-5.988 1.035-8.319 2.748l0.040-0.028c1.081-0.294 2.323-0.462 3.604-0.462 0.090 0 0.18 0.001 0.269 0.002l-0.013-0c0.126-0.006 0.274-0.009 0.422-0.009 0.557 0 1.104 0.047 1.635 0.137l-0.057-0.008c0.615-0.16 1.32-0.252 2.048-0.252 0.159 0 0.317 0.004 0.474 0.013l-0.022-0.001c6.414 0.034 11.6 5.241 11.6 11.66 0 0 0 0 0 0v0c-0.015 0.888-0.094 1.745-0.234 2.581l0.014-0.101c0.081 0.485 0.127 1.045 0.127 1.615 0 0.135-0.003 0.27-0.008 0.404l0.001-0.019c-0.049 1.346-0.214 2.624-0.486 3.862l0.026-0.142c1.698-2.242 2.72-5.079 2.72-8.153 0-0.016-0-0.033-0-0.049v0.003c0-0.024 0-0.052 0-0.081 0-7.577-6.143-13.72-13.72-13.72-0.042 0-0.084 0-0.127 0.001l0.006-0zM17.7 12.78l2.3-2.5 1.48 1.48-2.64 2.38c0.707 1.093 1.136 2.424 1.16 3.854l0 0.006c0.001 0.038 0.001 0.083 0.001 0.128 0 1.453-0.465 2.797-1.255 3.892l0.013-0.020 2.5 2.38-1.48 1.7-2.2-2.44c-0.939 0.837-2.183 1.348-3.547 1.348-0.103 0-0.206-0.003-0.307-0.009l0.014 0.001c-0.041 0.001-0.089 0.002-0.138 0.002-1.404 0-2.698-0.466-3.738-1.253l0.016 0.011-2.16 2.26-1.36-1.46 2.26-2.26c-0.776-1.096-1.24-2.461-1.24-3.934 0-0.023 0-0.046 0-0.069l-0 0.004c0.012-1.494 0.474-2.877 1.256-4.025l-0.016 0.025-2.5-2.4 1.6-1.6 2.28 2.5c1.027-0.847 2.355-1.36 3.804-1.36 0.020 0 0.039 0 0.059 0l-0.003-0c0.011-0 0.023-0 0.036-0 1.449 0 2.778 0.513 3.814 1.368l-0.010-0.008zM9.88 18.2c-0.017 0.141-0.027 0.305-0.027 0.47 0 2.205 1.708 4.012 3.873 4.169l0.014 0.001c2 0 3.84-1.24 3.84-4.64 0.013-0.122 0.020-0.264 0.020-0.408 0-2.184-1.699-3.971-3.848-4.111l-0.012-0.001c-2.4-0.12-3.86 1.92-3.86 4.52zM13.8 6.54c6.44 0 11.66 5.22 11.66 11.66s-5.22 11.66-11.66 11.66c-6.44 0-11.66-5.22-11.66-11.66v0c0-6.44 5.22-11.66 11.66-11.66v0zM13.8 4.4c-7.622 0-13.8 6.178-13.8 13.8s6.178 13.8 13.8 13.8c7.622 0 13.8-6.178 13.8-13.8v0c0-7.622-6.178-13.8-13.8-13.8v0z"/></svg>