<svg width="16" height="16" viewBox="0 0 16 16" fill="none" xmlns="http://www.w3.org/2000/svg">
<g clip-path="url(#clip0_110_22810)">
<path d="M15.9301 7C15.7069 5.23998 14.905 3.60408 13.6505 2.34959C12.396 1.0951 10.7601 0.293193 9.00012 0.07C8.66876 0.0239979 8.33465 0.000610478 8.00011 0C5.97462 0.0138202 4.02977 0.795454 2.55805 2.18716C1.08633 3.57887 0.197318 5.47704 0.0704149 7.4986C-0.0564879 9.52017 0.588171 11.5146 1.87429 13.0794C3.16042 14.6443 4.99225 15.663 7.00011 15.93C7.33147 15.976 7.66558 15.9994 8.00011 16C9.13451 15.999 10.2557 15.7567 11.2893 15.2893C12.3229 14.8218 13.2453 14.1399 13.9953 13.2888C14.7452 12.4376 15.3056 11.4368 15.6391 10.3525C15.9727 9.26828 16.0719 8.1255 15.9301 7ZM13.2001 12.59C12.1516 13.7757 10.7288 14.5668 9.16823 14.8316C7.60771 15.0965 6.00356 14.8191 4.62254 14.0457C3.24153 13.2723 2.16689 12.0494 1.57735 10.5805C0.987803 9.11154 0.918881 7.48504 1.38204 5.97149C1.84521 4.45794 2.81254 3.14855 4.12318 2.26108C5.43381 1.37361 7.00876 0.961547 8.58609 1.09342C10.1634 1.22529 11.6481 1.89315 12.7931 2.98593C13.9382 4.07871 14.6747 5.53055 14.8801 7.1C15.0041 8.08185 14.9184 9.07883 14.6289 10.0252C14.3393 10.9715 13.8523 11.8457 13.2001 12.59Z" fill="#0E0E0E"/>
<path d="M8.57012 3.5H7.37011V7.4H3.50012V8.6H7.37011V12.5H8.57012V8.6H12.5001V7.4H8.57012V3.5Z" fill="#0E0E0E"/>
</g>
<defs>
<clipPath id="clip0_110_22810">
<rect width="16" height="16" fill="white"/>
</clipPath>
</defs>
</svg>
