<svg id="dds__icon--performance" viewbox="0 0 32 32" width="32px" height="32px" xmlns="http://www.w3.org/2000/svg"><title>dds__icon--performance</title><path d="M16 0c-8.837 0-16 7.163-16 16s7.163 16 16 16c8.837 0 16-7.163 16-16v0c0-8.837-7.163-16-16-16v0zM7.14 26.66l1.52-1.5-1.52-1.52-1.52 1.52c-1.929-2.167-3.189-4.966-3.437-8.051l-0.003-0.049h2.12v-2.12h-2.12c0.273-3.097 1.53-5.859 3.452-8.014l-0.012 0.014 1.52 1.52 1.52-1.5-1.52-1.52c2.122-1.762 4.807-2.914 7.75-3.157l0.050-0.003v2h2.14v-2c3.078 0.238 5.838 1.438 8.020 3.296l-0.020-0.016-1.4 1.4 1.52 1.52 1.38-1.4c1.869 2.152 3.086 4.915 3.317 7.953l0.003 0.047h-2.2v1.98h2.12c-0.239 3.084-1.455 5.846-3.335 8.017l0.015-0.017-1.38-1.38-1.52 1.5 1.38 1.38c-2.398 2.065-5.543 3.322-8.981 3.322-3.373 0-6.463-1.21-8.861-3.22l0.021 0.017zM24.3 13.46l-0.66-1.6-8.34 1.56c-1.417 0.174-2.504 1.37-2.504 2.82 0 1.563 1.262 2.831 2.823 2.84h0.001c0.678-0.007 1.298-0.248 1.785-0.644l-0.005 0.004 6.24-4.44 0.66-0.52zM16 16.88c-0.093 0.049-0.204 0.078-0.321 0.078-0.387 0-0.7-0.313-0.7-0.7 0-0.301 0.19-0.557 0.456-0.656l0.005-0.002 3.24-0.62z"/></svg>