<svg width="15" height="23" viewBox="0 0 15 23" fill="none" xmlns="http://www.w3.org/2000/svg">
<path d="M7.49791 0.489502C1.59118 0.489502 0.0132657 4.67867 0.0132657 7.0246C0.00488739 7.14259 0 7.28014 0 7.41838C0 9.07799 0.677946 10.5791 1.77202 11.6599L1.77271 11.6606C2.75368 12.6786 3.35831 14.0652 3.35831 15.5928C3.35831 15.8561 3.34016 16.1144 3.30595 16.3678L3.30944 16.3385H4.8315C4.85315 16.1311 4.86571 15.891 4.86571 15.648C4.86571 13.7405 4.10119 12.0125 2.8619 10.7523L2.8626 10.753C1.98985 9.93118 1.44596 8.76729 1.44596 7.47703C1.44596 7.32761 1.45294 7.1796 1.4676 7.03437L1.46621 7.05252C1.46621 6.20073 1.75945 1.9976 7.47068 1.98364C13.1819 1.96967 13.4751 6.1728 13.4751 7.05252C13.4877 7.1796 13.4954 7.32761 13.4954 7.47703C13.4954 8.76729 12.9515 9.93048 12.0808 10.7509L12.0788 10.753C10.8402 12.0118 10.0756 13.7405 10.0756 15.648C10.0756 15.891 10.0882 16.1318 10.1126 16.3685L10.1098 16.3385H11.6878C11.6563 16.1144 11.6382 15.8561 11.6382 15.5928C11.6382 14.0652 12.2428 12.6786 13.2252 11.6592L13.2238 11.6606C14.3207 10.5784 15 9.07589 15 7.41489C15 7.25779 14.9937 7.1021 14.9818 6.94849L14.9832 6.96874C14.9832 4.67867 13.4046 0.489502 7.49791 0.489502ZM3.40649 17.693H11.5893V19.3407H3.40649V17.693ZM11.5893 21.8682V20.4718H3.40649V21.8682C4.80288 23.1529 10.2767 23.1529 11.5754 21.8682H11.5893Z" fill="black"/>
</svg>
