<svg id="dds__icon--search" viewbox="0 0 32 32" xmlns="http://www.w3.org/2000/svg"><title>dds__icon--search</title><path d="M32 30.52l-10.6-10.52c1.72-2.133 2.761-4.877 2.761-7.864 0-0.048-0-0.096-0.001-0.143l0 0.007c0-0 0-0.001 0-0.001 0-6.627-5.373-12-12-12-0.056 0-0.112 0-0.168 0.001l0.008-0c-6.642 0.067-12.001 5.467-12.001 12.119 0 0.063 0.001 0.127 0.001 0.19l-0-0.010c0 6.627 5.373 12 12 12v0c0.096 0.003 0.209 0.004 0.322 0.004 2.95 0 5.643-1.101 7.69-2.915l-0.012 0.011 10.6 10.6 1.48-1.48zM12 22.26c-5.523 0-10-4.477-10-10v0c0-0.006-0-0.013-0-0.021 0-5.547 4.463-10.052 9.994-10.119l0.006-0c5.523 0 10 4.477 10 10v0c-0.011 5.547-4.465 10.050-9.992 10.14l-0.008 0z"/></svg>